<svg xmlns="http://www.w3.org/2000/svg" viewBox="0 0 199.32 163.65"><path d="M75.93 94.81s-6.73.47-11.35 1c-5.89.64-16.94 2.55-23.34 4.84-1.91.7-5.81 2.32-6.14 4.29s.91 3.64 2.32 5.29c.81 1 5.42 5.39 6.72 6.46a116.52 116.52 0 0 0 24.51 14.89c2.77 1.17 7.38 2.79 7.38 2.79s-.35-13.11-.28-26c0-6.81.18-13.55.18-13.55m123.3 5.18c.38 3.52-.53 10.18-.68 11a50.55 50.55 0 0 1-2.07 7.26 79 79 0 0 1-3.72 7.48 62.4 62.4 0 0 1-10.57 13c-11.57 10-29.49 15.69-44.86 17.57a114.51 114.51 0 0 1-33.47-1c-3.81-.69-9.46-2-9.46-2s0 2.27-.16 3.86a16.62 16.62 0 0 1-.95 3.23 5.16 5.16 0 0 1-4 2.88 12.18 12.18 0 0 1-6.91-.34c-3.51-1.49-4.78-4.77-5.38-8.56-.5-3-1-8.3-1-8.3s-2.63-1.25-4.84-2.34a123.76 123.76 0 0 1-18.67-11.43c-1.55-1.15-8.21-6.73-9.69-8.11-4.11-3.91-7.82-7.81-10.64-12.79-2.2-3.9-2.82-7.37-1.15-11.5 2.3-5.76 10.55-10.1 16.2-12.57 4.16-1.84 17-6 22.42-6.82 2.52-.37 6.45-1.08 6.69-1.23a1 1 0 0 0 .24-.22c.13-.17.33-5.88.29-8s1.52-15.53 2-18.38c.27-1.53 1.43-7.46 2.63-9a2.37 2.37 0 0 1 3.27-.28c6.15 3.83 8 17.08 8.48 23.83.27 4.11.41 10.29.41 10.29s7-.21 11.38-.09A103.1 103.1 0 0 1 118.23 79c5.6.9 16.52 3.28 22.78 6.45 5.15 2.62 10 7 11.54 11.68 1.46 4.28 1.24 7.26-1 11.09-2.49 4.36-7.2 7.59-12 7.86-1.42.08-6.76-.63-8.41-1.9a1.46 1.46 0 0 1-.14-2c.17-.22 2.67-1.54 4.14-2.32a9 9 0 0 0 1.93-1.36c1.23-1.08 2.34-2.26 2.21-3.66-.17-1.81-2.08-2.92-3.91-3.64-8.54-3.39-25.61-6.21-33.89-6.7-3.23-.19-7.82-.35-7.82-.35l1 45.55s3.8.73 6.79 1.21c1.71.27 9 .91 10.93 1 14.72.4 31.15-.93 44.65-7.26 5.94-2.79 11.37-6.26 15.49-11a31.86 31.86 0 0 0 7.53-23.64c-.81-9.69-7.67-21.26-13.13-28.25C152.52 53.1 127.79 37.85 106 28.9c-22.19-9.14-44.15-14.39-67.76-15.27-6.07-.23-19.36.08-26 1.94-1 .26-1.92.59-2.81.8a8.13 8.13 0 0 0-2.11.88 2.57 2.57 0 0 0-.33.33c.26.14.53.27.8.39.71.32 3.7.5 5.25.81a5 5 0 0 1 3.39 2 2 2 0 0 1 0 2.52c-1.52 1.85-7.26 1.54-9.75 1.14S.78 23.22.2 21c-.7-2.68.58-5.31 2-7.74 2.76-4.84 6.72-7.39 12.51-9A127 127 0 0 1 41.08.09C58.69-.57 75.35 2.51 92.4 7.68A245.25 245.25 0 0 1 124.25 20a252.31 252.31 0 0 1 23.24 13.08c1.87 1.24 12.83 9.3 14.52 10.71 3.56 2.91 8.21 7.09 11.56 10.42 6.52 6.45 14.62 16.35 18.56 24.21 1 1.88 1.68 3.72 2.9 5.9a50.9 50.9 0 0 1 2.52 6.51c.3 1.27.73 3.14.81 3.23a38.4 38.4 0 0 1 .87 6z" fill="#263067"/></svg>